<?xml version="1.0" encoding="UTF-8"?>
<svg version="1.1" xmlns="http://www.w3.org/2000/svg" width="1200" height="452">
<path d="M0 0 C1.42989291 1.26333699 2.85558615 2.53142275 4.28100586 3.79980469 C5.04928711 4.44691406 5.81756836 5.09402344 6.60913086 5.76074219 C11.32866708 9.74172503 15.32344002 14.07022909 19.28100586 18.79980469 C20.42375977 20.11078125 20.42375977 20.11078125 21.58959961 21.44824219 C41.77749234 44.94304403 54.56685407 72.63816931 61.28100586 102.79980469 C61.4447168 103.48494141 61.60842773 104.17007813 61.77709961 104.87597656 C67.10778277 127.80672518 66.60347603 155.92861039 61.28100586 178.79980469 C61.08764648 179.65960938 60.89428711 180.51941406 60.69506836 181.40527344 C57.42688726 195.54721758 52.50289528 208.70353283 46.28100586 221.79980469 C45.95374512 222.49154785 45.62648438 223.18329102 45.28930664 223.89599609 C38.16823773 238.67341385 28.52338756 251.89868968 17.28100586 263.79980469 C16.17240899 265.10856488 15.06809611 266.42096828 13.96850586 267.73730469 C-15.33306477 301.03454404 -60.87048485 320.89990328 -104.71899414 323.79980469 C-106.71886648 323.82240212 -108.71923006 323.83052303 -110.71899414 323.79980469 C-110.71899414 320.16980469 -110.71899414 316.53980469 -110.71899414 312.79980469 C-109.34227539 312.43628906 -107.96555664 312.07277344 -106.54711914 311.69824219 C-83.87818906 305.57200556 -64.57407114 295.82168348 -52.0246582 274.98339844 C-41.26681391 256.22613147 -38.29960517 235.46337219 -43.28149414 214.36230469 C-49.5246822 193.0239798 -62.38785063 176.34038135 -81.96899414 165.54980469 C-93.78162525 159.34475501 -105.35585764 157.58155622 -118.71899414 155.79980469 C-118.71899414 211.23980469 -118.71899414 266.67980469 -118.71899414 323.79980469 C-127.53973421 323.79980469 -135.45128591 323.71524815 -144.03149414 322.42480469 C-145.39757812 322.2353125 -145.39757812 322.2353125 -146.79125977 322.04199219 C-162.76344772 319.75535111 -162.76344772 319.75535111 -164.71899414 317.79980469 C-164.8315598 316.1559094 -164.87577354 314.50727819 -164.89257812 312.85961914 C-164.91281288 311.27580193 -164.91281288 311.27580193 -164.93345642 309.6599884 C-164.949114 307.92902168 -164.949114 307.92902168 -164.96508789 306.16308594 C-164.99807101 303.72362983 -165.03128178 301.28417679 -165.06469727 298.84472656 C-165.11179817 294.99636315 -165.15612607 291.14800789 -165.19580078 287.29956055 C-165.23597671 283.58725673 -165.28745491 279.87523129 -165.34008789 276.16308594 C-165.35270912 274.47159172 -165.35270912 274.47159172 -165.36558533 272.7459259 C-165.71283891 249.85881516 -171.52382216 230.21281242 -186.71899414 212.79980469 C-187.23848633 212.18492187 -187.75797852 211.57003906 -188.29321289 210.93652344 C-201.17463821 196.82211534 -221.56572044 188.81669104 -240.26977539 187.56152344 C-256.02893649 187.25059503 -269.51536719 190.43760499 -283.36352539 197.99511719 C-286.11984911 199.4775637 -288.78935154 200.71723199 -291.71899414 201.79980469 C-294.31794113 196.23063257 -295.90037207 190.71710793 -297.28149414 184.73730469 C-297.49837891 183.80337891 -297.71526367 182.86945313 -297.9387207 181.90722656 C-308.59218029 135.05787014 -301.04860665 84.73393885 -275.66040039 43.73339844 C-270.24749954 35.31859443 -264.35797434 27.29159698 -257.71899414 19.79980469 C-257.23317871 19.2484082 -256.74736328 18.69701172 -256.24682617 18.12890625 C-249.27133046 10.25812531 -242.11697551 3.1793871 -233.71899414 -3.20019531 C-232.78700195 -3.93625 -231.85500977 -4.67230469 -230.89477539 -5.43066406 C-163.81332489 -57.46580791 -64.34182718 -56.01454215 0 0 Z M-174.71899414 -6.20019531 C-187.77773846 7.09070446 -196.49046431 25.06472473 -197.71899414 43.79980469 C-197.77055664 44.56808594 -197.82211914 45.33636719 -197.87524414 46.12792969 C-198.345366 59.21298801 -195.5042325 72.09671506 -189.71899414 83.79980469 C-189.30004883 84.70988281 -188.88110352 85.61996094 -188.44946289 86.55761719 C-184.49683224 94.55400541 -178.96030987 100.54950865 -172.71899414 106.79980469 C-172.0602832 107.47011719 -171.40157227 108.14042969 -170.72290039 108.83105469 C-156.94025672 121.87269601 -138.30686884 127.79980469 -119.71899414 127.79980469 C-119.71899414 75.98980469 -119.71899414 24.17980469 -119.71899414 -29.20019531 C-140.63801758 -29.20019531 -159.52820763 -20.26090901 -174.71899414 -6.20019531 Z M-68.15649414 86.61230469 C-71.14168888 90.5573168 -70.92585813 92.24785259 -71.71899414 97.79980469 C-58.84899414 97.79980469 -45.97899414 97.79980469 -32.71899414 97.79980469 C-33.75795189 90.52710047 -34.87689611 87.42327979 -40.15649414 82.54980469 C-49.79876061 75.96484222 -60.78119545 77.56878367 -68.15649414 86.61230469 Z " fill="#EC1C24" transform="translate(312.718994140625,68.2001953125)"/>
<path d="M0 0 C1.26289352 -0.00525696 1.26289352 -0.00525696 2.55130005 -0.01062012 C5.31561714 -0.0193705 8.07967474 -0.01360719 10.84399414 -0.00683594 C12.78723702 -0.00818564 14.73047958 -0.01012871 16.67372131 -0.01263428 C20.74459044 -0.01557747 24.81537161 -0.011318 28.88623047 -0.00195312 C34.05670506 0.00937233 39.22697038 0.00292086 44.3974371 -0.00909805 C48.41365575 -0.01639724 52.42982656 -0.01399101 56.44604683 -0.00884247 C58.34947294 -0.00752454 60.25290365 -0.00908714 62.15632439 -0.01380157 C84.57190415 -0.0571006 106.94832782 0.65601967 124.53540039 16.50097656 C136.64152992 29.34946309 139.83725853 42.99060802 139.50024414 60.10644531 C138.92675979 73.24423407 132.51304024 83.67119174 123.16821289 92.65332031 C119.47097755 95.65641068 115.35727322 97.97063005 111.19165039 100.25878906 C113.83561926 102.02143498 116.50007678 103.44458846 119.33227539 104.87133789 C132.91156828 111.79965084 142.17465707 120.46240136 147.62915039 135.07128906 C151.37459724 148.64245363 150.76341624 164.32565046 145.19165039 177.25878906 C144.86422852 178.11085938 144.53680664 178.96292969 144.19946289 179.84082031 C138.67896876 192.63466619 127.30353704 202.60230236 114.55102539 207.71972656 C96.72388592 214.16494062 78.62777012 214.42438386 59.90258789 214.46191406 C58.94417622 214.46474144 57.98576454 214.46756882 56.99831009 214.47048187 C51.93580102 214.48537735 46.87331979 214.49467019 41.81079102 214.49902344 C36.60831205 214.50452407 31.40609266 214.52861331 26.2036953 214.55699539 C22.17490906 214.57567789 18.14618505 214.58083014 14.11735916 214.58235931 C12.19975984 214.58536874 10.28216116 214.59333885 8.36460495 214.60654449 C-14.48678947 214.75281641 -14.48678947 214.75281641 -21.74584961 208.88378906 C-26.80785705 202.44123414 -27.9303607 198.13524875 -27.9487915 189.99810791 C-27.95176263 189.26529531 -27.95473375 188.53248271 -27.9577949 187.77746367 C-27.96646895 185.32103192 -27.96798906 182.86464898 -27.96948242 180.40820312 C-27.97411153 178.64721574 -27.97913631 176.88622936 -27.98452759 175.12524414 C-27.99764507 170.33997288 -28.00409533 165.55471564 -28.00853825 160.76942921 C-28.01147015 157.7789599 -28.0155752 154.78849442 -28.02004242 151.79802704 C-28.03371592 142.43919462 -28.04338318 133.08037096 -28.04724431 123.72152925 C-28.05172419 112.92257741 -28.0692695 102.12375221 -28.09824491 91.32483888 C-28.11987084 82.97480582 -28.12994909 74.62480837 -28.13128543 66.27474761 C-28.13233284 61.28899374 -28.13822714 56.30335893 -28.15610504 51.31763458 C-28.17260134 46.62593877 -28.17473364 41.93445132 -28.16596603 37.24273682 C-28.16519648 35.52387687 -28.16952755 33.80500564 -28.17942429 32.08617401 C-28.19217527 29.73300469 -28.18625037 27.38056984 -28.17584229 25.02740479 C-28.17730885 23.71259251 -28.17877541 22.39778023 -28.18028641 21.04312515 C-27.58377244 14.97378937 -25.91499386 9.44860102 -21.12084961 5.38378906 C-20.49823242 4.82949219 -19.87561523 4.27519531 -19.23413086 3.70410156 C-13.30685906 0.17255476 -6.71230028 -0.03498505 0 0 Z M16.19165039 34.25878906 C16.19165039 52.07878906 16.19165039 69.89878906 16.19165039 88.25878906 C22.56477539 88.30003906 28.93790039 88.34128906 35.50415039 88.38378906 C38.4554187 88.41110107 38.4554187 88.41110107 41.46630859 88.43896484 C50.25285266 88.48647164 58.94154389 88.27412754 67.68774414 87.38378906 C68.46193192 87.30685822 69.23611969 87.22992737 70.0337677 87.15066528 C78.31343935 86.20618377 84.33841847 83.52357267 90.12915039 77.44628906 C96.00500862 70.00445919 97.29291773 62.66286967 96.19165039 53.25878906 C94.81219139 48.0838694 92.5758976 43.5726856 88.16040039 40.31738281 C78.01592084 34.86271226 67.48180605 34.10842574 56.23071289 34.16113281 C55.21452881 34.16213989 54.19834473 34.16314697 53.15136719 34.16418457 C49.3731167 34.16939731 45.59488235 34.18335853 41.81665039 34.19628906 C29.13227539 34.22722656 29.13227539 34.22722656 16.19165039 34.25878906 Z M16.19165039 119.25878906 C16.19165039 139.71878906 16.19165039 160.17878906 16.19165039 181.25878906 C23.94665039 181.30003906 31.70165039 181.34128906 39.69165039 181.38378906 C43.31037109 181.41110107 43.31037109 181.41110107 47.00219727 181.43896484 C74.23391986 182.21064599 74.23391986 182.21064599 97.75415039 170.38378906 C104.13557936 163.24770978 105.38105853 155.64006301 105.19165039 146.25878906 C104.00239101 139.0839184 101.26491361 133.24424476 96.00415039 128.13378906 C82.75284592 119.29958608 67.16865302 119.07833637 51.73852539 119.16113281 C50.8266748 119.16213989 49.91482422 119.16314697 48.9753418 119.16418457 C45.63076485 119.16934165 42.2862061 119.18330161 38.94165039 119.19628906 C27.68040039 119.22722656 27.68040039 119.22722656 16.19165039 119.25878906 Z " fill="#231F20" transform="translate(551.808349609375,108.7412109375)"/>
<path d="M0 0 C9.20505848 9.34389797 14.65013819 19.22627065 15.02734375 32.50390625 C14.8627715 37.25947675 14.37799204 40.64583727 11.58984375 44.62890625 C10.99171875 45.51578125 10.39359375 46.40265625 9.77734375 47.31640625 C5.50036056 51.83778848 0.71449328 53.31748339 -5.41015625 53.62890625 C-10.95188829 53.43884685 -14.54634181 52.02903302 -18.41015625 48.00390625 C-22.37231786 43.14629611 -25.3563791 37.7462917 -28.265625 32.21435547 C-30.28426771 28.40721749 -32.25095332 25.62445677 -35.41015625 22.62890625 C-35.41015625 21.96890625 -35.41015625 21.30890625 -35.41015625 20.62890625 C-36.28800781 20.19578125 -36.28800781 20.19578125 -37.18359375 19.75390625 C-38.53526337 19.07095739 -39.87729895 18.36779592 -41.19921875 17.62890625 C-53.14174165 11.12404271 -67.66953763 10.9127824 -80.5859375 14.5859375 C-87.89067898 17.28353912 -94.11849801 21.05730457 -98.41015625 27.62890625 C-100.53388154 32.8416865 -100.89527269 37.24948448 -99.41015625 42.62890625 C-94.66765848 52.11390179 -85.00910962 56.36781055 -75.41015625 59.62890625 C-67.75103391 61.91475607 -59.95951378 63.75022239 -52.20410156 65.67578125 C-42.17143084 68.1794002 -32.2791265 70.85452298 -22.51171875 74.265625 C-21.70061646 74.54880585 -20.88951416 74.83198669 -20.05383301 75.12374878 C-3.25451998 81.15435608 10.93729756 90.62258311 19.40234375 106.69140625 C26.4593672 121.82351555 26.22079157 140.72783785 20.80981445 156.42749023 C14.02158505 174.23709719 0.34682832 185.73912687 -16.53173828 193.79199219 C-44.00157132 206.03095601 -79.05173547 203.90483818 -106.66015625 193.37890625 C-123.78730712 185.82551129 -136.8538885 171.35011932 -143.84765625 154.12890625 C-146.53138728 145.90997997 -147.8481956 136.77532097 -144.55859375 128.56640625 C-142.02041426 124.28430752 -138.30160041 121.75354872 -134.09765625 119.25390625 C-128.71003667 118.00097146 -123.5093969 117.97032095 -118.22265625 119.62890625 C-110.72707819 124.95909509 -107.46295234 131.33938697 -104.03320312 139.62158203 C-99.86159883 149.56049894 -93.73975419 159.2042508 -83.66796875 163.91015625 C-69.08398434 169.44337527 -52.85358559 169.39947874 -38.40234375 163.375 C-30.81933991 159.58349808 -24.92259997 154.63949191 -21.47265625 146.75390625 C-19.22914915 139.58870545 -19.56365152 132.50825007 -22.96875 125.79296875 C-32.36832015 111.68087698 -49.98054036 109.29345061 -65.24560547 105.43359375 C-119.43357086 91.65458326 -119.43357086 91.65458326 -133.41015625 71.62890625 C-142.02915181 56.87827627 -144.42929531 41.05151129 -140.546875 24.45703125 C-136.32742513 10.24720009 -127.18271562 -1.00688841 -114.41015625 -8.37109375 C-80.42443357 -26.17313896 -29.71280322 -26.69668876 0 0 Z " fill="#231F20" transform="translate(1096.41015625,125.37109375)"/>
<path d="M0 0 C1.61857962 1.5265277 3.22343629 3.06777062 4.8125 4.625 C5.51246094 5.28886719 6.21242188 5.95273438 6.93359375 6.63671875 C16.43462666 16.35999805 22.12315281 29.2986782 22.2722168 42.82910156 C22.1286974 49.15009504 20.20640615 53.17915642 15.8125 57.625 C10.74622319 61.48502043 6.10022198 62.04418147 -0.1875 61.625 C-6.85860348 60.21851977 -10.20915221 56.97145558 -14.1875 51.625 C-15.86652411 48.95687565 -17.3668816 46.20480871 -18.875 43.4375 C-26.30294707 30.39174204 -35.48321113 19.69075772 -50.125 14.75 C-64.88001169 11.2548412 -80.168727 13.01772281 -93.4375 20.3125 C-108.15404574 29.84480804 -116.2206622 45.06842908 -119.9375 61.875 C-125.29166927 88.3968152 -124.20286725 119.29467131 -109.1875 142.625 C-102.42534542 152.39255662 -91.20195023 158.18066721 -79.92578125 161.23828125 C-67.8613355 162.94210454 -55.44160164 162.47783248 -44.1875 157.625 C-43.37152344 157.274375 -42.55554688 156.92375 -41.71484375 156.5625 C-28.29464121 149.93296598 -21.23050057 137.28895666 -16.125 123.8125 C-13.71035573 117.44625599 -11.29529998 111.62431129 -4.8359375 108.48046875 C1.03579256 106.58384798 7.5142531 106.67921437 13.1875 109.1875 C18.13504234 112.03208286 21.03193678 116.28331034 22.8125 121.625 C24.60262997 139.58499248 17.17834486 154.78806229 6.375 168.5 C-9.14332368 186.52553583 -30.28539612 195.84485836 -53.8125 198.3125 C-83.92515765 200.40729358 -112.34592846 194.73608372 -135.54296875 174.578125 C-156.62131016 154.69700436 -167.32419507 124.0129307 -168.25390625 95.59521484 C-169.12419387 62.32847058 -162.25469926 31.00756372 -139.04467773 6.03735352 C-103.55437305 -30.77411882 -38.53771096 -33.68394767 0 0 Z " fill="#231F20" transform="translate(897.1875,128.375)"/>
<path d="M0 0 C5.32257185 3.91088809 8.14607035 9.53775089 9.14286804 16.02698135 C9.32047646 19.3628175 9.34069593 22.66403731 9.30273438 26.00439453 C9.30828339 27.26096863 9.3138324 28.51754272 9.31954956 29.81219482 C9.32927903 33.22995312 9.31684876 36.64617551 9.29326439 40.06376886 C9.27301995 43.65545357 9.27904181 47.24710889 9.28137207 50.83883667 C9.28131866 56.86583756 9.26165462 62.89252327 9.22949219 68.91943359 C9.19257271 75.87123158 9.18382292 82.82261772 9.1907897 89.77450097 C9.19711 96.48612556 9.1863144 103.1976101 9.16682434 109.90920639 C9.15868459 112.75510542 9.15593442 115.60093252 9.15751648 118.44684219 C9.15856427 122.42451109 9.1343065 126.40181196 9.10742188 130.37939453 C9.11035248 131.55051788 9.11328308 132.72164124 9.11630249 133.92825317 C9.0407982 141.18202472 8.59644776 147.43263909 3.890625 153.3046875 C-1.95632742 158.19273972 -6.61415914 160.37832504 -14.375 159.9375 C-20.37985167 159.13685311 -24.18673866 156.66847725 -28.0625 152.0625 C-33.17877741 144.17568748 -32.60717395 133.30519527 -32.57128906 124.22631836 C-32.57654602 122.55307243 -32.57654602 122.55307243 -32.58190918 120.84602356 C-32.59063463 117.19806496 -32.58491035 113.55030395 -32.578125 109.90234375 C-32.57947419 107.34509749 -32.58141684 104.78785147 -32.58392334 102.23060608 C-32.58686209 96.88735256 -32.58281091 91.54416839 -32.57324219 86.20092773 C-32.56235551 80.05127987 -32.56589201 73.90176463 -32.576895 67.75211996 C-32.58711441 61.79873564 -32.58596964 55.84539201 -32.58013153 49.8920002 C-32.57880331 47.37515812 -32.58041357 44.85831262 -32.58509064 42.34147453 C-32.59020397 38.8173225 -32.58237851 35.29342065 -32.57128906 31.76928711 C-32.57533752 30.74300201 -32.57938599 29.71671692 -32.58355713 28.65933228 C-32.53147197 19.66557368 -32.38947207 10.18123871 -26.3125 3.0625 C-19.04585025 -4.00775381 -8.80903765 -4.68707286 0 0 Z " fill="#231F20" transform="translate(472.3125,166.9375)"/>
<path d="M0 0 C1.24652344 -0.01224609 2.49304688 -0.02449219 3.77734375 -0.03710938 C22.03453536 -0.06602784 22.03453536 -0.06602784 28.375 5.1875 C32.51697505 10.44892777 32.81717315 14.71417598 32.80859375 21.3203125 C31.87998802 27.4608225 28.16739074 30.56875597 23.375 34.1875 C21 35.5 21 35.5 19.375 36.1875 C20.055625 36.80625 20.73625 37.425 21.4375 38.0625 C26.8435406 43.45309477 33.64207279 51.34759634 33.6875 59.3125 C33.584375 60.59125 33.48125 61.87 33.375 63.1875 C29.81461959 65.56108694 28.56603161 65.92709381 24.375 65.1875 C19.08363395 60.43581398 15.62347939 53.95385573 12.07617188 47.88476562 C9.64958273 43.85578427 7.55431145 40.57652484 3.375 38.1875 C0.37916712 37.59553176 -2.57648377 37.32033295 -5.625 37.1875 C-5.60405273 37.89358398 -5.58310547 38.59966797 -5.56152344 39.32714844 C-5.47830702 42.53045376 -5.42632215 45.73353163 -5.375 48.9375 C-5.34148438 50.04867187 -5.30796875 51.15984375 -5.2734375 52.3046875 C-5.26054688 53.37460937 -5.24765625 54.44453125 -5.234375 55.546875 C-5.21342773 56.53139648 -5.19248047 57.51591797 -5.17089844 58.53027344 C-5.7557015 61.95231461 -6.86771916 63.13451795 -9.625 65.1875 C-15.83928571 64.97321429 -15.83928571 64.97321429 -18.625 62.1875 C-18.87896729 59.76527405 -18.87896729 59.76527405 -18.88378906 56.68383789 C-18.89009338 55.53246841 -18.89639771 54.38109894 -18.90289307 53.19483948 C-18.8988446 51.94589401 -18.89479614 50.69694855 -18.890625 49.41015625 C-18.89349518 47.49401772 -18.89349518 47.49401772 -18.89642334 45.53916931 C-18.89778662 42.83302362 -18.89507932 40.12723712 -18.88574219 37.42114258 C-18.87435892 33.95300548 -18.88089998 30.48517832 -18.89288712 27.01705265 C-18.90185539 23.71057609 -18.89557406 20.40413686 -18.890625 17.09765625 C-18.89467346 15.85073502 -18.89872192 14.60381378 -18.90289307 13.31910706 C-18.89658875 12.16458542 -18.89028442 11.01006378 -18.88378906 9.82055664 C-18.88219788 8.80288712 -18.88060669 7.78521759 -18.87896729 6.73670959 C-18.625 4.1875 -18.625 4.1875 -16.625 1.1875 C-11.29372145 -0.58959285 -5.5789647 0.00283196 0 0 Z M-5.625 11.1875 C-5.625 16.4675 -5.625 21.7475 -5.625 27.1875 C-2.72859882 27.26870751 0.16550912 27.32809421 3.0625 27.375 C3.87912109 27.40013672 4.69574219 27.42527344 5.53710938 27.45117188 C10.3175753 27.50923421 13.52132382 27.34854605 17.375 24.1875 C19.72022935 21.30237022 19.72022935 21.30237022 19.25 17.6875 C18.70821891 14.21035119 18.70821891 14.21035119 16.61816406 12.48706055 C14.02618328 10.9854156 12.58164863 10.83737214 9.609375 10.89453125 C8.71992187 10.90419922 7.83046875 10.91386719 6.9140625 10.92382812 C5.53347656 10.9615332 5.53347656 10.9615332 4.125 11 C2.72121094 11.02030273 2.72121094 11.02030273 1.2890625 11.04101562 C-1.01587221 11.07629524 -3.32051005 11.13010034 -5.625 11.1875 Z " fill="#231F20" transform="translate(904.625,360.8125)"/>
<path d="M0 0 C7.11793039 5.96282766 10.82711811 11.96812729 12.296875 21.11328125 C12.91831375 32.27027463 12.47866096 42.14061737 5.296875 51.11328125 C-0.67830637 57.7538503 -6.80871678 60.55970588 -15.65625 61.390625 C-25.19684251 61.69641322 -33.45012337 59.96813006 -40.94921875 53.84765625 C-47.4027899 47.46595115 -49.90452439 39.61098622 -50.08349609 30.65551758 C-50.05887365 20.14732895 -49.11358659 10.62696324 -41.54296875 2.61328125 C-30.26362578 -6.5826162 -12.15955445 -8.48708786 0 0 Z M-33.015625 12.92578125 C-37.25532977 20.93411247 -38.09209167 29.25901092 -35.453125 37.92578125 C-33.60173559 42.80828264 -31.39276623 45.97375577 -27.015625 48.92578125 C-21.580692 50.87415346 -16.90776481 50.8764258 -11.453125 48.98828125 C-6.6015124 45.68036357 -3.46736157 41.69482616 -1.703125 36.11328125 C-0.96092199 27.92315733 -0.17250762 18.81090963 -5.703125 12.11328125 C-9.63170233 8.05135795 -13.26422221 5.9897483 -18.953125 5.80078125 C-25.22676624 5.89259063 -28.97318495 8.00930011 -33.015625 12.92578125 Z " fill="#231F20" transform="translate(854.703125,364.88671875)"/>
<path d="M0 0 C4.98580834 3.90694645 7.3686074 8.04556884 8.234375 14.39453125 C7.859375 16.64453125 7.859375 16.64453125 6.796875 18.45703125 C3.44450356 20.51171052 1.70967421 20.47876275 -2.140625 19.64453125 C-4.18563689 17.26883658 -5.77186968 14.82147622 -7.3671875 12.125 C-9.79530966 8.72883794 -12.26771622 7.00608407 -16.38671875 6.2109375 C-21.79664893 6.20129413 -24.88694334 6.9985184 -29.140625 10.64453125 C-34.72501959 16.62781117 -34.56757369 24.18332967 -34.4609375 31.9296875 C-33.95041153 37.85054357 -32.37657936 42.47633308 -28.078125 46.64453125 C-23.4901493 49.01251871 -19.19225899 49.22607674 -14.140625 48.64453125 C-8.47850601 46.20204855 -6.23495707 41.97899006 -3.33984375 36.7890625 C-2.140625 34.64453125 -2.140625 34.64453125 -1.140625 33.64453125 C4.06114884 33.19220309 4.06114884 33.19220309 6.734375 34.70703125 C8.51823619 37.77923663 8.21396287 40.15775057 7.859375 43.64453125 C4.58285094 51.8358414 -0.27775832 56.04533171 -8.140625 59.64453125 C-16.34464789 62.30170466 -26.4210892 61.32235723 -34.140625 57.64453125 C-41.21836624 52.90562838 -45.51028013 46.73790009 -48.140625 38.64453125 C-50.22498277 27.59743509 -49.46351008 16.56701973 -43.515625 6.76953125 C-33.17707537 -7.36580583 -14.31552414 -9.06475708 0 0 Z " fill="#231F20" transform="translate(780.140625,365.35546875)"/>
<path d="M0 0 C0.99515625 -0.01224609 1.9903125 -0.02449219 3.015625 -0.03710938 C12.15470143 -0.05500574 20.45214422 0.1376798 27.5 6.45703125 C32.22096878 12.39847776 31.55877446 20.00364734 30.875 27.1875 C28.44786506 32.40134543 24.75076023 35.84058322 19.5324707 38.28466797 C16.76171285 39.22598745 14.7061485 39.41855704 11.79296875 39.3828125 C10.86162109 39.37636719 9.93027344 39.36992187 8.97070312 39.36328125 C8.01099609 39.34652344 7.05128906 39.32976562 6.0625 39.3125 C5.08345703 39.30347656 4.10441406 39.29445313 3.09570312 39.28515625 C0.68854939 39.26167182 -1.71809743 39.2288284 -4.125 39.1875 C-4.10405273 39.83299805 -4.08310547 40.47849609 -4.06152344 41.14355469 C-3.97825795 44.07471068 -3.92630794 47.00561777 -3.875 49.9375 C-3.82472656 51.46117187 -3.82472656 51.46117187 -3.7734375 53.015625 C-3.67488715 60.50545128 -3.67488715 60.50545128 -5.9140625 63.8984375 C-9.23427197 65.83424867 -11.50304322 65.12652583 -15.125 64.1875 C-17.76242639 61.55007361 -17.3780322 60.36285861 -17.38378906 56.68383789 C-17.39009338 55.53246841 -17.39639771 54.38109894 -17.40289307 53.19483948 C-17.3988446 51.94589401 -17.39479614 50.69694855 -17.390625 49.41015625 C-17.39349518 47.49401772 -17.39349518 47.49401772 -17.39642334 45.53916931 C-17.39778662 42.83302362 -17.39507932 40.12723712 -17.38574219 37.42114258 C-17.37435892 33.95300548 -17.38089998 30.48517832 -17.39288712 27.01705265 C-17.40185539 23.71057609 -17.39557406 20.40413686 -17.390625 17.09765625 C-17.39467346 15.85073502 -17.39872192 14.60381378 -17.40289307 13.31910706 C-17.39658875 12.16458542 -17.39028442 11.01006378 -17.38378906 9.82055664 C-17.38219788 8.80288712 -17.38060669 7.78521759 -17.37896729 6.73670959 C-17.125 4.1875 -17.125 4.1875 -15.125 1.1875 C-10.38638559 -0.58676111 -4.98222075 0.0031533 0 0 Z M-4.125 11.1875 C-4.125 17.1275 -4.125 23.0675 -4.125 29.1875 C6.36653057 29.85044184 6.36653057 29.85044184 15.875 26.1875 C18.21668764 22.67496854 18.37123677 21.32280644 17.875 17.1875 C16.07506226 14.48759338 14.791227 12.6456135 11.875 11.1875 C9.15524285 11.11562481 6.46825368 11.0947138 3.75 11.125 C-0.148125 11.1559375 -0.148125 11.1559375 -4.125 11.1875 Z " fill="#231F20" transform="translate(975.125,360.8125)"/>
<path d="M0 0 C1.45599609 0.00773437 1.45599609 0.00773437 2.94140625 0.015625 C3.90949219 0.01046875 4.87757812 0.0053125 5.875 0 C8.50390625 0.265625 8.50390625 0.265625 11.50390625 2.265625 C12.6706543 4.78759766 12.6706543 4.78759766 13.765625 7.9296875 C14.16201172 9.05117188 14.55839844 10.17265625 14.96679688 11.328125 C15.57297852 13.0915625 15.57297852 13.0915625 16.19140625 14.890625 C16.60712891 16.07398438 17.02285156 17.25734375 17.45117188 18.4765625 C18.47785673 21.4032044 19.49498404 24.33282197 20.50390625 27.265625 C22.72161184 25.04791941 23.28488449 23.54114146 24.34375 20.6171875 C24.85518555 19.23273437 24.85518555 19.23273437 25.37695312 17.8203125 C26.08362557 15.87534247 26.78936285 13.93003239 27.49414062 11.984375 C27.83638672 11.05882812 28.17863281 10.13328125 28.53125 9.1796875 C28.83796631 8.3335791 29.14468262 7.4874707 29.46069336 6.61572266 C30.55418524 4.15235901 31.7067478 2.27347693 33.50390625 0.265625 C36.1328125 -0.1953125 36.1328125 -0.1953125 39.06640625 -0.109375 C40.03707031 -0.09648437 41.00773437 -0.08359375 42.0078125 -0.0703125 C44.50390625 0.265625 44.50390625 0.265625 46.50390625 2.265625 C46.74441528 4.10061646 46.74441528 4.10061646 46.73095703 6.34814453 C46.73080597 7.18886505 46.73065491 8.02958557 46.73049927 8.89578247 C46.7201767 9.80415863 46.70985413 10.71253479 46.69921875 11.6484375 C46.69638885 12.57784149 46.69355896 13.50724548 46.69064331 14.46481323 C46.67942694 17.4402135 46.65431985 20.41531535 46.62890625 23.390625 C46.61887833 25.40494358 46.60975215 27.41926686 46.6015625 29.43359375 C46.57948286 34.37771956 46.54494318 39.32162165 46.50390625 44.265625 C43.53390625 44.265625 40.56390625 44.265625 37.50390625 44.265625 C37.17390625 34.035625 36.84390625 23.805625 36.50390625 13.265625 C31.05890625 28.610625 31.05890625 28.610625 25.50390625 44.265625 C22.53390625 44.265625 19.56390625 44.265625 16.50390625 44.265625 C12.40024083 34.41682798 8.99777845 24.3441025 5.50390625 14.265625 C5.17390625 24.165625 4.84390625 34.065625 4.50390625 44.265625 C1.53390625 44.265625 -1.43609375 44.265625 -4.49609375 44.265625 C-4.54543774 38.32081319 -4.58178657 32.37611991 -4.60595703 26.43115234 C-4.61603046 24.40769373 -4.6296897 22.38424972 -4.64697266 20.36083984 C-4.67116222 17.45666911 -4.68256324 14.55269039 -4.69140625 11.6484375 C-4.70172882 10.74006134 -4.71205139 9.83168518 -4.72268677 8.89578247 C-4.72283783 8.05506195 -4.72298889 7.21434143 -4.72314453 6.34814453 C-4.72758575 5.60646027 -4.73202698 4.864776 -4.73660278 4.10061646 C-4.32628158 0.97002346 -2.99674018 0.31890193 0 0 Z " fill="#000000" transform="translate(1133.49609375,22.734375)"/>
<path d="M0 0 C4.44554532 3.94869025 7.78661121 8.06787701 9 14 C9 15.32 9 16.64 9 18 C-4.86 18 -18.72 18 -33 18 C-31.0412011 9.18540496 -29.58559232 3.93945546 -22 -1 C-14.4422512 -3.79916622 -7.05641692 -4.1646696 0 0 Z " fill="#EC1E24" transform="translate(473,119)"/>
<path d="M0 0 C10.89 0 21.78 0 33 0 C33 2.64 33 5.28 33 8 C29.04 8 25.08 8 21 8 C21 19.88 21 31.76 21 44 C18.03 44 15.06 44 12 44 C12 32.12 12 20.24 12 8 C8.04 8 4.08 8 0 8 C0 5.36 0 2.72 0 0 Z " fill="#000000" transform="translate(1085,23)"/>
</svg>
